<svg width="128" height="128" enable-background="new" version="1.0" viewBox="0 0 128 128" xmlns="http://www.w3.org/2000/svg" xmlns:xlink="http://www.w3.org/1999/xlink">
 <title>Adwaita Icon Template</title>
 <defs>
  <linearGradient id="linearGradient2" x1="-15.6562" x2="234.938" y1="153.141" y2="153.141" gradientTransform="matrix(.279337 0 0 .279337 33.6363 21.2222)" gradientUnits="userSpaceOnUse">
   <stop stop-color="#da606e" offset=".1"/>
   <stop stop-color="#ed955c" offset=".3"/>
   <stop stop-color="#e1c268" offset=".5"/>
   <stop stop-color="#719bd5" offset=".7"/>
   <stop stop-color="#a85cd0" offset=".9"/>
  </linearGradient>
 </defs>
 <rect x="12.2629" y="12" width="104" height="104" ry="7.5" fill="#222"/>
 <path d="m29.2629 31.5926h18.1481v2.59259h-2.59259v2.59259h-2.59259v2.59259h-2.59259v2.59259h-2.59259v2.59259h-2.59259v2.59259h12.963v2.59259h-18.1481v-2.59259h2.59259v-2.59259h2.59259v-2.59259h2.59259v-2.59259h2.59259v-2.59259h2.59259v-2.59259h-12.963m33.7037 5.18519h12.963v2.59259h-2.59259v2.59259h-2.59259v2.59259h-2.59259v2.59259h7.77778v2.59259h-12.963v-2.59259h2.59259v-2.59259h2.59259v-2.59259h2.59259v-2.59259h-7.77778m20.7407 12.963h2.59259v12.963h2.59259v-2.59259h2.59259v2.59259h-2.59259v2.59259h2.59259v-2.59259h2.5926v2.59259h-2.5926v7.77778h-2.59259v2.59259h-5.18519v2.59259h-2.59259v2.59259h2.59259v-2.59259h5.18519v-2.59259h2.59259v5.18518h-2.59259v2.59259h-5.18519v2.5926h-2.59259v-2.5926h-2.59259v2.5926h-15.5556v-2.5926h-2.59259v-2.59259h-2.59259v-5.18518h2.59259v2.59259h5.18519v2.59259h7.77778v2.59259h2.59259v-2.59259h-2.59259v-2.59259h-7.77778v-2.59259h-10.3704v-10.3704h2.59259v-5.18518h2.59259v-2.59259h2.59259v-2.59259h2.59259v5.18519h2.59259v2.59259h2.59259v-2.59259h2.59259v2.59259h-2.59259v2.59259h5.18518v-5.18518h2.59259v-5.18519h2.59259v-2.59259h2.59259m-33.7037 10.3704h5.18519v2.59259h-2.59259v10.3704h2.59259v5.18518h2.59259v2.59259h2.59259v2.5926h2.59259v2.59259h10.3704v2.5926h-15.5556v-2.5926h-15.5556v-2.59259h-2.59259v-12.963h2.59259v-2.59259h2.59259v-5.18518h5.18519m44.0741 7.77778h2.59259v7.77778h-2.59259v2.59259h-2.5926v2.5926h-2.59259v5.18518h-5.18519v-5.18518h5.18519v-2.5926h2.59259v-2.59259h2.5926m2.59259 0h2.59259v7.77778h-2.59259v2.5926h-5.18518v-2.5926h2.5926v-2.59259h2.59259" enable-background="new" fill="url(#linearGradient2)" stroke-width="2.5926"/>
</svg>
